<svg width="21" height="22" viewBox="0 0 21 22" fill="none" xmlns="http://www.w3.org/2000/svg">
<path d="M10.5 0.499268C4.70156 0.499268 0 5.20083 0 10.9993C0 16.7977 4.70156 21.4993 10.5 21.4993C16.2984 21.4993 21 16.7977 21 10.9993C21 5.20083 16.2984 0.499268 10.5 0.499268ZM10.5 19.718C5.68594 19.718 1.78125 15.8133 1.78125 10.9993C1.78125 6.18521 5.68594 2.28052 10.5 2.28052C15.3141 2.28052 19.2188 6.18521 19.2188 10.9993C19.2188 15.8133 15.3141 19.718 10.5 19.718ZM10.6312 7.23286C11.8734 7.23286 12.7172 8.02505 12.8109 9.18755C12.818 9.28599 12.9 9.36099 12.9984 9.36099H14.3273C14.3883 9.36099 14.4375 9.31177 14.4375 9.25083C14.4375 7.2188 12.8344 5.79614 10.6242 5.79614C8.04844 5.79614 6.5625 7.5352 6.5625 10.4086V11.6344C6.5625 14.4868 8.04844 16.2024 10.6242 16.2024C12.8273 16.2024 14.4375 14.8243 14.4375 12.8883C14.4375 12.8274 14.3883 12.7782 14.3273 12.7782H12.9961C12.8977 12.7782 12.818 12.8532 12.8086 12.9493C12.7102 14.0297 11.8687 14.7727 10.6289 14.7727C9.09844 14.7727 8.23594 13.65 8.23594 11.6415V10.4086C8.23828 8.36958 9.10312 7.23286 10.6312 7.23286Z" fill="#767676"/>
</svg>
